<svg aria-hidden="true" style="position: absolute; width: 0; height: 0; overflow: hidden;" version="1.1" xmlns="http://www.w3.org/2000/svg" xmlns:xlink="http://www.w3.org/1999/xlink">
<defs>
<symbol id="icon-logo" viewBox="0 0 97 32">
<path fill="#fff" style="fill: var(--color1, #fff)" d="M37.38 21.751l4.958-12.845h2.624l4.941 12.846h-2.406l-0.978-2.63h-5.791l-0.959 2.63h-2.389zM43.623 11.229l-2.208 6.005h4.416l-2.208-6.005zM59.673 16.98c0 3.138-1.701 4.935-4.073 4.935-0.923 0-1.683-0.273-2.425-0.725v3.428h-2.155v-12.356h1.648l0.343 0.89c0.688-0.563 1.557-1.053 2.787-1.053 2.208 0 3.872 1.778 3.872 4.881zM57.61 16.98c0-1.959-0.996-3.121-2.426-3.121-0.815 0-1.502 0.363-2.009 0.78v4.845c0.561 0.381 1.231 0.672 1.954 0.654 1.466 0 2.48-1.089 2.48-3.157zM69.677 16.98c0 3.138-1.701 4.935-4.073 4.935-0.923 0-1.682-0.273-2.425-0.725v3.428h-2.154v-12.356h1.647l0.343 0.89c0.688-0.563 1.557-1.053 2.787-1.053 2.208 0 3.872 1.778 3.872 4.881zM67.614 16.98c0-1.959-0.995-3.121-2.426-3.121-0.814 0-1.502 0.363-2.009 0.78v4.845c0.561 0.381 1.231 0.672 1.954 0.654 1.466 0 2.48-1.089 2.48-3.157zM79.138 17.706h-6.588c0.109 1.561 1.158 2.631 2.842 2.631 0.886 0 1.9-0.29 2.805-0.799l0.579 1.397c-1.021 0.609-2.25 0.972-3.564 0.98h-0.002c-2.769 0-4.669-1.707-4.669-4.864 0-3.011 1.845-4.989 4.343-4.989 2.624 0 4.253 2.050 4.253 5.081v0.562zM74.867 13.678c-1.303 0-2.19 1.106-2.317 2.703h4.597c-0.128-1.596-0.96-2.703-2.281-2.703zM82.537 21.753h-2.153v-13.174h2.155v13.173zM86.551 21.753h-2.155v-13.174h2.155v13.173zM96.881 16.998c0 3.011-1.936 4.954-4.487 4.954-2.588 0-4.489-1.923-4.489-4.935s1.937-4.954 4.507-4.954c2.551 0 4.469 1.923 4.469 4.935zM94.891 17.017c0-1.869-1.031-3.175-2.497-3.175-1.484 0-2.497 1.289-2.497 3.157s1.031 3.157 2.515 3.157c1.447 0 2.479-1.27 2.479-3.139zM15.893 0.442l10.957 6.343c0.991 0.582 1.646 1.642 1.646 2.856 0 0 0 0.001 0 0.001v-0 12.686c0 0 0 0.001 0 0.001 0 1.213-0.655 2.274-1.63 2.847l-0.015 0.008-10.957 6.343c-0.472 0.278-1.039 0.442-1.645 0.442s-1.174-0.164-1.661-0.45l0.015 0.008-10.958-6.343c-0.99-0.582-1.645-1.642-1.645-2.855 0-0.001 0-0.001 0-0.002v0-12.686c0-1.179 0.627-2.268 1.645-2.857l10.958-6.343c0.472-0.278 1.039-0.442 1.645-0.442s1.174 0.164 1.661 0.45l-0.015-0.008zM14.247 11.036l-4.274 2.475v4.949l4.274 2.474 4.275-2.475v-4.949l-4.275-2.474z"></path>
</symbol>
</defs>
</svg>
